<?xml version="1.0" encoding="UTF-8" standalone="no"?>
<svg width="100px" height="40px" viewBox="0 0 100 40" version="1.1" xmlns="http://www.w3.org/2000/svg" xmlns:xlink="http://www.w3.org/1999/xlink" xmlns:sketch="http://www.bohemiancoding.com/sketch/ns">
    <!-- Generator: Sketch 3.2.2 (9983) - http://www.bohemiancoding.com/sketch -->
    <title>pixel-logo-white</title>
    <desc>Created with Sketch.</desc>
    <defs></defs>
    <g id="Page-1" stroke="none" stroke-width="1" fill="none" fill-rule="evenodd" sketch:type="MSPage">
        <g id="pixel-logo-white" sketch:type="MSArtboardGroup" fill="#FFFFFF">
            <path d="M34.4978877,10.8705306 L27.1840281,10.8705306 L27.1840281,14.7497143 L29.9265193,14.7497143 L29.9265193,25.2662857 L27.4017123,25.2662857 L27.4017123,29.1454694 L37.2842456,29.1454694 L37.2842456,25.2231837 L34.4978877,25.2231837 L34.4978877,10.8705306 L34.4978877,10.8705306 Z" id="Shape" sketch:type="MSShapeGroup"></path>
            <path d="M51.9990386,19.706449 L55.3513754,14.7066122 L58.1812702,14.7066122 L58.1921544,10.9031837 L52.6520912,10.9136327 L49.3436211,16.0858776 L46.0783579,10.9136327 L40.2882877,10.9139592 L40.2882877,14.7497143 L43.248793,14.7497143 L46.6443368,19.7492245 L43.0743158,25.2662857 L40.2882877,25.2662857 L40.2882877,29.1020408 L45.6865263,29.1020408 L49.3000842,23.2835918 L52.9571789,29.0589388 L58.2683439,29.1020408 L58.3554175,25.2662857 L55.6561333,25.2662857 L51.9990386,19.706449 L51.9990386,19.706449 Z" id="Shape" sketch:type="MSShapeGroup"></path>
            <path d="M70.6756842,25.4383673 C67.933193,25.4383673 65.5386667,23.1973878 65.5386667,20.9560816 L77.6415789,20.9991837 C77.6415789,20.9991837 79.0782947,10.4826122 69.9358877,10.5257143 C60.4257263,10.570449 60.9676281,19.748898 60.9676281,20.9129796 C60.9676281,22.0764082 62.099586,29.4037551 70.1971088,29.5330612 C70.1971088,29.5330612 75.3344561,29.6623673 77.7721895,26.6452245 L75.8130316,23.1542857 C75.8127018,23.1542857 73.4185053,25.4383673 70.6756842,25.4383673 L70.6756842,25.4383673 L70.6756842,25.4383673 Z M69.5001895,14.4045714 C72.4171579,14.4045714 73.1572842,17.5941224 73.1572842,17.5941224 L65.712814,17.5941224 C65.7124842,17.5941224 66.5832211,14.4045714 69.5001895,14.4045714 L69.5001895,14.4045714 L69.5001895,14.4045714 Z" id="Shape" sketch:type="MSShapeGroup"></path>
            <path d="M86.6965825,24.2315102 L86.6965825,4.19004082 L79.2521123,4.14661224 L79.2956491,8.02579592 L82.082007,8.112 L82.082007,24.6197551 C82.082007,24.6197551 82.4303018,29.1023673 86.4353614,29.1023673 L89.3523298,29.1023673 L89.3523298,25.1797551 L87.4802456,25.1797551 C87.4802456,25.1797551 86.6965825,24.9211429 86.6965825,24.2315102 L86.6965825,24.2315102 L86.6965825,24.2315102 Z" id="Shape" sketch:type="MSShapeGroup"></path>
            <rect id="Rectangle-path" sketch:type="MSShapeGroup" x="92.8784842" y="24.2315102" width="4.96287018" height="4.87053061"></rect>
            <rect id="Rectangle-path" sketch:type="MSShapeGroup" x="29.9261895" y="4.1035102" width="4.78905263" height="4.74122449"></rect>
            <path d="M16.2562807,10.5253878 C13.0780912,10.5253878 11.1192632,12.5511837 11.1192632,12.5511837 C11.1192632,10.6546939 8.6812,10.9133061 8.6812,10.9133061 L4.1101614,10.8702041 L4.1101614,14.7059592 L6.8965193,14.7062857 L6.8965193,31.946449 L4.28430877,31.9898776 L4.28430877,35.7825306 L14.1233053,35.7825306 L14.1233053,31.989551 L11.5981684,31.989551 L11.5981684,27.9813878 C11.5981684,27.9813878 13.6457193,29.4602449 15.9953895,29.5330612 C18.7817474,29.6192653 24.3541333,27.5503673 24.3541333,20.1371429 C24.3538035,12.7235918 19.4344702,10.5253878 16.2562807,10.5253878 L16.2562807,10.5253878 L16.2562807,10.5253878 Z M15.537593,25.4383673 C13.1932,25.4383673 11.2927509,23.0070204 11.2927509,20.0075102 C11.2927509,17.0083265 13.1932,14.5769796 15.537593,14.5769796 C17.8816561,14.5769796 19.7824351,17.0083265 19.7824351,20.0075102 C19.7824351,23.0070204 17.881986,25.4383673 15.537593,25.4383673 L15.537593,25.4383673 L15.537593,25.4383673 Z" id="Shape" sketch:type="MSShapeGroup"></path>
        </g>
    </g>
</svg>