<?xml version="1.0" encoding="UTF-8" standalone="no"?>
<svg width="97px" height="83px" viewBox="0 0 97 83" version="1.1" xmlns="http://www.w3.org/2000/svg" xmlns:xlink="http://www.w3.org/1999/xlink" xmlns:sketch="http://www.bohemiancoding.com/sketch/ns">
    <!-- Generator: Sketch 3.3.2 (12043) - http://www.bohemiancoding.com/sketch -->
    <title>quotes</title>
    <desc>Created with Sketch.</desc>
    <g id="Page-1" stroke="none" stroke-width="1" fill="none" fill-rule="evenodd" sketch:type="MSPage">
        <g id="quotes" sketch:type="MSArtboardGroup"  fill="#FFFFFF">
            <path d="M24.33,2.5 C16.277,2.5 9.75,9.216 9.75,17.5 C9.75,25.785 16.277,32.5 24.33,32.5 C38.908,32.5 29.188,61.5 9.75,61.5 L9.75,68.5 C44.44,68.5 58.037,2.5 24.33,2.5 L24.33,2.5 Z M66.33,2.5 C58.278,2.5 51.75,9.216 51.75,17.5 C51.75,25.785 58.278,32.5 66.33,32.5 C80.908,32.5 71.188,61.5 51.75,61.5 L51.75,68.5 C86.44,68.5 100.037,2.5 66.33,2.5 L66.33,2.5 Z" id="path-1" sketch:type="MSShapeGroup"></path>
        </g>
    </g>
</svg>