<svg xmlns="http://www.w3.org/2000/svg" xmlns:xlink="http://www.w3.org/1999/xlink" preserveAspectRatio="xMidYMid" width="23" height="23" viewBox="0 0 23 23">
  <defs>
    <style>

      .cls-2 {
        fill: #000000;
      }
    </style>
  </defs>
  <path d="M22.608,13.036 C22.608,13.036 12.490,22.640 12.490,22.640 C12.415,22.712 12.339,22.784 12.270,22.784 C12.270,22.784 12.194,22.856 12.194,22.856 C12.118,22.856 12.118,22.928 12.043,22.928 C11.967,22.928 11.967,22.928 11.891,23.000 C11.815,23.000 11.815,23.000 11.740,23.000 C11.588,23.000 11.368,23.000 11.216,23.000 C11.140,23.000 11.140,23.000 11.065,23.000 C10.989,23.000 10.989,23.000 10.913,22.928 C10.837,22.928 10.837,22.856 10.762,22.856 C10.762,22.856 10.686,22.856 10.686,22.784 C10.610,22.712 10.534,22.712 10.465,22.640 C10.465,22.640 0.362,12.964 0.362,12.964 C-0.162,12.467 -0.162,11.623 0.362,11.126 C0.658,10.845 0.954,10.773 1.326,10.773 C1.698,10.773 1.994,10.917 2.290,11.126 C2.290,11.126 10.183,18.617 10.183,18.617 C10.183,18.617 10.183,1.270 10.183,1.270 C10.183,0.564 10.775,0.001 11.519,0.001 C12.263,0.001 12.855,0.564 12.855,1.270 C12.855,1.270 12.855,18.617 12.855,18.617 C12.855,18.617 20.673,11.198 20.673,11.198 C21.196,10.701 22.085,10.701 22.608,11.198 C23.132,11.695 23.132,12.539 22.608,13.036 Z" id="path-1" class="cls-2" fill-rule="evenodd"/>
</svg>
