<?xml version="1.0" encoding="UTF-8" standalone="no"?>
<svg width="23px" height="24px" viewBox="0 0 23 24" version="1.1" xmlns="http://www.w3.org/2000/svg" xmlns:xlink="http://www.w3.org/1999/xlink" xmlns:sketch="http://www.bohemiancoding.com/sketch/ns">
    <!-- Generator: Sketch 3.3.2 (12043) - http://www.bohemiancoding.com/sketch -->
    <title>path-1</title>
    <desc>Created with Sketch.</desc>
    <defs></defs>
    <g id="Page-1" stroke="none" stroke-width="1" fill="none" fill-rule="evenodd" sketch:type="MSPage">
        <path d="M23,13 C23,12.5558147 22.0864837,11.646118 22,12 C22.0864837,11.646118 12.1468656,21.5368211 12,22 C12.1468656,21.5368211 12.1468656,0 12,0 C12.1468656,0 10.8531344,0 11,0 C10.8531344,0 10.8531344,21.5388204 11,22 C10.8531344,21.5388204 0.914516901,11.646118 1,12 C0.914516901,11.646118 0,12.5558147 0,13 C0,12.5558147 11.4994997,24 11,24 C11.4994997,24 23,12.5558147 23,13 L23,13 Z" id="path-1" fill="#000000" sketch:type="MSShapeGroup"></path>
    </g>
</svg>