<?xml version="1.0" encoding="UTF-8" standalone="no"?>
<svg width="53px" height="51px" viewBox="0 0 53 51" version="1.1" xmlns="http://www.w3.org/2000/svg" xmlns:xlink="http://www.w3.org/1999/xlink" xmlns:sketch="http://www.bohemiancoding.com/sketch/ns">
    <!-- Generator: Sketch 3.2.2 (9983) - http://www.bohemiancoding.com/sketch -->
    <title>Shape 5 + Shape 3 + Shape 4</title>
    <desc>Created with Sketch.</desc>
    <defs></defs>
    <g id="Welcome" stroke="none" stroke-width="1" fill="none" fill-rule="evenodd" sketch:type="MSPage">
        <g id="CAREERS-2" sketch:type="MSArtboardGroup" transform="translate(-1304.000000, -1753.000000)" fill="#DCDCDC">
            <g id="Shape-5-+-Shape-3-+-Shape-4" sketch:type="MSLayerGroup" transform="translate(1304.000000, 1753.000000)">
                <path d="M26.5,51 C19.6433333,51 13.1991667,48.348 8.35183333,43.5303214 C0.428166667,35.6599286 -1.45283333,23.7241071 3.6695,13.83375 C4.13333333,12.9394286 5.237,12.5878929 6.139,13.0468929 C7.03916667,13.5058929 7.39483333,14.6042143 6.931,15.5003571 C2.54016667,23.9791071 4.15166667,34.20825 10.9441667,40.9548214 C15.0985,45.084 20.6223333,47.3571429 26.5,47.3571429 C32.3758333,47.3571429 37.9015,45.084 42.0558333,40.9548214 C46.2101667,36.8256429 48.5,31.3376786 48.5,25.5 C48.5,19.6605 46.212,14.1725357 42.0558333,10.0451786 C37.8996667,5.91782143 32.3776667,3.64285714 26.5,3.64285714 C20.6223333,3.64285714 15.0985,5.91782143 10.9441667,10.0451786 C10.2273333,10.7573571 9.06866667,10.7573571 8.35183333,10.0451786 C7.635,9.333 7.635,8.18185714 8.35183333,7.46967857 C13.1991667,2.65382143 19.6433333,0 26.5,0 C33.3566667,0 39.8026667,2.65382143 44.6481667,7.46967857 C49.4973333,12.2855357 52.1666667,18.6878571 52.1666667,25.5 C52.1666667,32.3103214 49.4973333,38.7144643 44.6481667,43.5303214 C39.8026667,48.348 33.3566667,51 26.5,51 L26.5,51 Z" id="Shape-5" sketch:type="MSShapeGroup"></path>
                <path d="M26.5,36.4285714 C25.488,36.4285714 24.6666667,35.6143929 24.6666667,34.6071429 L24.6666667,16.3928571 C24.6666667,15.3874286 25.488,14.5714286 26.5,14.5714286 C27.512,14.5714286 28.3333333,15.3874286 28.3333333,16.3928571 L28.3333333,34.6071429 C28.3333333,35.6143929 27.512,36.4285714 26.5,36.4285714 L26.5,36.4285714 Z" id="Shape-3" sketch:type="MSShapeGroup"></path>
                <path d="M35.6666667,27.3214286 L17.3333333,27.3214286 C16.3213333,27.3214286 15.5,26.5054286 15.5,25.5 C15.5,24.4945714 16.3213333,23.6785714 17.3333333,23.6785714 L35.6666667,23.6785714 C36.6805,23.6785714 37.5,24.4945714 37.5,25.5 C37.5,26.5054286 36.6805,27.3214286 35.6666667,27.3214286 L35.6666667,27.3214286 Z" id="Shape-4" sketch:type="MSShapeGroup"></path>
            </g>
        </g>
    </g>
</svg>