<?xml version="1.0" encoding="UTF-8" standalone="no"?>
<svg width="28px" height="32px" viewBox="0 0 28 32" version="1.1" xmlns="http://www.w3.org/2000/svg" xmlns:xlink="http://www.w3.org/1999/xlink" xmlns:sketch="http://www.bohemiancoding.com/sketch/ns">
    <!-- Generator: Sketch 3.2.2 (9983) - http://www.bohemiancoding.com/sketch -->
    <title>1423277586_ic_attach_file_48px</title>
    <desc>Created with Sketch.</desc>
    <defs></defs>
    <g id="Welcome" stroke="none" stroke-width="1" fill="none" fill-rule="evenodd" sketch:type="MSPage">
        <g id="CAREERS-3" sketch:type="MSArtboardGroup" transform="translate(-1036.000000, -2773.000000)">
            <g id="1423277586_ic_attach_file_48px" sketch:type="MSLayerGroup" transform="translate(1050.000000, 2789.000000) rotate(40.000000) translate(-1050.000000, -2789.000000) translate(1031.000000, 2770.000000)">
                <path d="M26.125,9.5 L26.125,27.7083333 C26.125,31.2075 23.2908333,34.0416667 19.7916667,34.0416667 C16.2925,34.0416667 13.4583333,31.2075 13.4583333,27.7083333 L13.4583333,7.91666667 C13.4583333,5.73166667 15.2316667,3.95833333 17.4166667,3.95833333 C19.6016667,3.95833333 21.375,5.73166667 21.375,7.91666667 L21.375,24.5416667 C21.375,25.4125 20.6704167,26.125 19.7916667,26.125 C18.9129167,26.125 18.2083333,25.4125 18.2083333,24.5416667 L18.2083333,9.5 L15.8333333,9.5 L15.8333333,24.5416667 C15.8333333,26.7266667 17.6066667,28.5 19.7916667,28.5 C21.9766667,28.5 23.75,26.7266667 23.75,24.5416667 L23.75,7.91666667 C23.75,4.4175 20.9158333,1.58333333 17.4166667,1.58333333 C13.9175,1.58333333 11.0833333,4.4175 11.0833333,7.91666667 L11.0833333,27.7083333 C11.0833333,32.5216667 14.98625,36.4166667 19.7916667,36.4166667 C24.5970833,36.4166667 28.5,32.5216667 28.5,27.7083333 L28.5,9.5 L26.125,9.5 L26.125,9.5 Z" id="Shape" fill="#606060" sketch:type="MSShapeGroup"></path>
                <path d="M0,0 L38,0 L38,38 L0,38 L0,0 Z" id="Shape" sketch:type="MSShapeGroup"></path>
            </g>
        </g>
    </g>
</svg>